<svg width="82" height="65" viewBox="0 0 82 65" fill="none" xmlns="http://www.w3.org/2000/svg">
    <g clip-path="url(#clip0)">
        <path fill-rule="evenodd" clip-rule="evenodd" d="M40.7418 65.1768C48.0541 65.7095 55.3616 64.6819 61.8347 61.3618C69.071 57.6502 75.9584 52.6819 79.2254 45.4379C82.6662 37.8084 82.8899 28.9396 79.9906 21.104C77.1381 13.3947 71.0371 7.02011 63.568 3.12125C56.6659 -0.481606 48.59 0.777893 40.7418 0.616371C32.6793 0.450439 24.3744 -1.37323 17.1959 2.16688C9.37428 6.02412 1.16304 12.2624 0.0887368 20.6645C-0.977029 28.9998 7.82659 35.0271 12.0553 42.371C15.2625 47.9406 16.7466 54.3948 21.8457 58.4486C27.155 62.6696 33.8778 64.6768 40.7418 65.1768Z" fill="#C3D6EB"/>
        <path d="M15.9467 62.5846H69.3195C73.5555 62.5846 77.0025 59.148 77.0025 54.9225V9.74736C77.0025 5.52246 73.5555 2.08524 69.3195 2.08524H15.9467C11.7107 2.08524 8.26364 5.52246 8.26364 9.74736V54.9225C8.26364 59.148 11.7107 62.5846 15.9467 62.5846ZM10.6909 9.74736C10.6909 6.85785 13.0487 4.50626 15.9467 4.50626H69.3195C72.2175 4.50626 74.5753 6.85785 74.5753 9.74736V54.9225C74.5753 57.812 72.2175 60.1636 69.3195 60.1636H15.9467C13.0487 60.1636 10.6909 57.812 10.6909 54.9225V9.74736Z" fill="#0A2235" stroke="#C3D6EB" stroke-width="0.162959"/>
        <path d="M27.689 14.7616C25.7588 14.7616 24.1877 13.1945 24.1877 11.2702C24.1877 9.34525 25.7588 7.77868 27.689 7.77868C29.6198 7.77868 31.1903 9.34524 31.1903 11.2702C31.1903 13.1945 29.6198 14.7616 27.689 14.7616ZM27.689 9.87379C26.9177 9.87379 26.289 10.4997 26.289 11.2702C26.289 12.0406 26.9177 12.6665 27.689 12.6665C28.461 12.6665 29.089 12.0406 29.089 11.2702C29.089 10.4998 28.461 9.87379 27.689 9.87379Z" fill="#0A2235" stroke="#C3D6EB" stroke-width="0.162959"/>
        <path d="M16.6809 14.727C14.7501 14.727 13.1795 13.1605 13.1795 11.2355C13.1795 9.3106 14.7501 7.74405 16.6809 7.74405C18.6117 7.74405 20.1822 9.3106 20.1822 11.2355C20.1822 13.1605 18.6117 14.727 16.6809 14.727ZM16.6809 9.83915C15.9095 9.83915 15.2809 10.4658 15.2809 11.2355C15.2809 12.0059 15.9096 12.6319 16.6809 12.6319C17.4528 12.6319 18.0809 12.0059 18.0809 11.2355C18.0809 10.4658 17.4529 9.83915 16.6809 9.83915Z" fill="#0A2235" stroke="#C3D6EB" stroke-width="0.162959"/>
        <path d="M38.6971 14.7957C36.767 14.7957 35.1964 13.2291 35.1964 11.3042C35.1964 9.37991 36.767 7.81335 38.6971 7.81335C40.6279 7.81335 42.1985 9.37992 42.1985 11.3042C42.1985 13.2291 40.6279 14.7957 38.6971 14.7957ZM38.6971 9.90783C37.9257 9.90783 37.2977 10.5338 37.2977 11.3042C37.2977 12.0746 37.9257 12.7006 38.6971 12.7006C39.4691 12.7006 40.0971 12.0746 40.0971 11.3042C40.0971 10.5338 39.4691 9.90783 38.6971 9.90783Z" fill="#0A2235" stroke="#C3D6EB" stroke-width="0.162959"/>
        <rect x="10.4477" y="17.5726" width="65.1795" height="2.10677" fill="#0A2235"/>
        <path d="M54.3171 23.3816H41.1257C40.716 23.3816 40.383 23.7123 40.383 24.1211C40.383 24.5299 40.716 24.8607 41.1257 24.8607H54.3171C54.6269 24.8607 54.8783 25.1116 54.8783 25.4189V54.7479C54.8783 55.0552 54.6269 55.306 54.3171 55.306H30.5856C30.2758 55.306 30.0243 55.0552 30.0243 54.7479V37.3797C30.0243 36.9709 29.6914 36.6401 29.2817 36.6401C28.872 36.6401 28.539 36.9709 28.539 37.3797V54.7479C28.539 55.8717 29.4574 56.7852 30.5856 56.7852H54.3171C55.4452 56.7852 56.3637 55.8717 56.3637 54.7479V25.4189C56.3637 24.295 55.4452 23.3816 54.3171 23.3816Z" fill="#0A2235" stroke="black" stroke-width="0.181416"/>
        <path d="M41.1126 26.0783L41.1126 26.0783C40.7075 26.1402 40.4287 26.5173 40.491 26.9215C40.5533 27.3256 40.9328 27.6018 41.3375 27.5404L41.3376 27.5404C41.7035 27.4845 42.0783 27.4562 42.4513 27.4562C46.464 27.4562 49.7279 30.7053 49.7279 34.6978C49.7279 36.4253 49.1167 38.013 48.0982 39.2593C47.62 38.4765 46.9814 37.7998 46.2139 37.2697C45.7841 36.9728 45.3249 36.7308 44.8452 36.5451C45.3973 35.96 45.7367 35.1732 45.7367 34.3085V33.6759C45.7367 31.8721 44.2626 30.4057 42.4513 30.4057C40.6401 30.4057 39.166 31.8721 39.166 33.6759V34.3085C39.166 35.1732 39.5053 35.96 40.0575 36.5451C39.5778 36.7308 39.1186 36.9728 38.6887 37.2697L38.6887 37.2697C37.9175 37.8024 37.2763 38.483 36.7973 39.2705C36.0279 38.3272 35.4901 37.1801 35.2753 35.9051C35.2074 35.502 34.8239 35.2308 34.4201 35.2981L34.4201 35.2981C34.0159 35.3655 33.7425 35.7466 33.8104 36.1499L33.8104 36.1499C34.1492 38.1606 35.1979 40.0006 36.7632 41.3314C38.3464 42.6774 40.3665 43.4186 42.4513 43.4186C47.2823 43.4186 51.2132 39.507 51.2132 34.6979C51.2132 29.8887 47.2823 25.977 42.4513 25.977C42.0032 25.977 41.5528 26.0111 41.1126 26.0783ZM40.6513 33.6758C40.6513 32.6887 41.4585 31.8847 42.4513 31.8847C43.4441 31.8847 44.2513 32.6887 44.2513 33.6758V34.3085C44.2513 35.2955 43.4441 36.0995 42.4513 36.0995C41.4585 36.0995 40.6513 35.2955 40.6513 34.3085V33.6758ZM42.4513 41.9394C40.7335 41.9394 39.1439 41.3514 37.8911 40.352C38.7626 38.6522 40.5014 37.5787 42.4513 37.5787C44.3971 37.5787 46.1326 38.6477 47.0059 40.3412C45.7582 41.3406 44.1738 41.9394 42.4513 41.9394Z" fill="#0A2235" stroke="black" stroke-width="0.181416"/>
        <path d="M48.4727 49.2068H39.2148C38.8051 49.2068 38.4721 49.5375 38.4721 49.9464C38.4721 50.3552 38.8051 50.6859 39.2148 50.6859H48.4727C48.8824 50.6859 49.2153 50.3552 49.2153 49.9464C49.2153 49.5375 48.8824 49.2068 48.4727 49.2068Z" fill="#0A2235" stroke="black" stroke-width="0.181416"/>
        <path d="M48.4727 45.5731H39.2148C38.8051 45.5731 38.4721 45.9039 38.4721 46.3127C38.4721 46.7215 38.8051 47.0523 39.2148 47.0523H48.4727C48.8824 47.0523 49.2153 46.7215 49.2153 46.3127C49.2153 45.9039 48.8824 45.5731 48.4727 45.5731Z" fill="#0A2235" stroke="black" stroke-width="0.181416"/>
        <path d="M36.3625 27.1473L36.3624 27.1473C36.0723 26.8588 35.6025 26.8588 35.3124 27.1473L35.3124 27.1473L33.2532 29.1968L32.5916 28.5383L32.5916 28.5383C32.3015 28.2498 31.8317 28.2498 31.5416 28.5383L31.5416 28.5383C31.2514 28.8272 31.2514 29.2958 31.5416 29.5846L32.7282 30.7655L32.7282 30.7656C32.8732 30.9098 33.0633 30.982 33.2532 30.982C33.443 30.982 33.6331 30.9098 33.7782 30.7657L33.7782 30.7656L36.3625 28.1936L36.3625 28.1936C36.6527 27.9047 36.6527 27.4362 36.3625 27.1473Z" fill="#0A2235" stroke="black" stroke-width="0.181416"/>
        <path d="M33.9758 23.3816C30.9783 23.3816 28.539 25.8086 28.539 28.793C28.539 31.7774 30.9783 34.2045 33.9758 34.2045C36.9733 34.2045 39.4126 31.7774 39.4126 28.793C39.4126 25.8086 36.9733 23.3816 33.9758 23.3816ZM33.9758 32.7253C31.7966 32.7253 30.0243 30.9608 30.0243 28.793C30.0243 26.6252 31.7966 24.8607 33.9758 24.8607C36.155 24.8607 37.9273 26.6252 37.9273 28.793C37.9273 30.9608 36.155 32.7253 33.9758 32.7253Z" fill="#0A2235" stroke="black" stroke-width="0.181416"/>
    </g>
    <defs>
        <clipPath id="clip0">
            <rect width="82" height="65" fill="white"/>
        </clipPath>
    </defs>
</svg>
