<svg width="81" height="65" viewBox="0 0 81 65" fill="none" xmlns="http://www.w3.org/2000/svg">
    <path fill-rule="evenodd" clip-rule="evenodd" d="M39.9247 0.130298C47.0905 -0.391716 54.2513 0.615221 60.5946 3.86879C67.6858 7.50598 74.4351 12.3746 77.6366 19.4733C81.0084 26.9498 81.2276 35.6407 78.3865 43.3192C75.5912 50.8739 69.6125 57.1207 62.2932 60.9414C55.5295 64.472 47.6156 63.2377 39.9247 63.396C32.024 63.5586 23.8856 65.3457 16.851 61.8766C9.18628 58.0967 1.13972 51.9836 0.0869573 43.75C-0.957435 35.5818 7.66963 29.6754 11.8136 22.4788C14.9564 17.0208 16.4107 10.696 21.4076 6.72352C26.6105 2.58721 33.1985 0.620299 39.9247 0.130298Z" fill="#C3D6EB"/>
    <path d="M32.0289 31.4509L32.0289 31.4509L24.8498 37.5761C24.6204 37.7726 24.4877 38.0594 24.4877 38.3616C24.4877 38.6646 24.6199 38.9513 24.8497 39.1477L32.0289 31.4509ZM32.0289 31.4509C32.4614 31.0814 33.1111 31.1336 33.4801 31.5671C33.8485 32.0014 33.7967 32.6527 33.3635 33.0217L33.3634 33.0217L27.1767 38.3009L27.1055 38.3616L27.1767 38.4224L33.3634 43.7015L33.4153 43.6408L33.3634 43.7015C33.7967 44.0712 33.8485 44.7225 33.4801 45.1561C33.2761 45.3962 32.9867 45.5194 32.6952 45.5194C32.4598 45.5194 32.2226 45.4383 32.0289 45.273L31.9771 45.3337L32.0289 45.273L24.8497 39.1477L32.0289 31.4509Z" fill="#0A2235" stroke="#C3D6EB" stroke-width="0.159691"/>
    <path d="M46.0836 45.156L46.0837 45.1562C46.287 45.3962 46.5764 45.5194 46.8679 45.5194C47.1033 45.5194 47.3405 45.4383 47.5342 45.273L47.586 45.3337L47.5342 45.273L54.7134 39.1477L46.0836 45.156ZM46.0836 45.156C45.7147 44.7225 45.767 44.0712 46.1997 43.7015M46.0836 45.156L46.1997 43.7015M46.1997 43.7015L52.3864 38.4224L52.4576 38.3616L52.3864 38.3009L46.1997 33.0217L46.1997 33.0217C45.767 32.6527 45.7146 32.0014 46.0836 31.5672L46.0836 31.5672C46.4519 31.1337 47.1022 31.0814 47.5341 31.4508L47.5342 31.4509L54.7134 37.5762C54.9433 37.7726 55.0754 38.0593 55.0754 38.3616C55.0754 38.6646 54.9433 38.9513 54.7134 39.1477L46.1997 43.7015Z" fill="#0A2235" stroke="#C3D6EB" stroke-width="0.159691"/>
    <path d="M36.2311 48.8688L36.2311 48.8688C36.1138 49.4262 36.4702 49.9737 37.0261 50.0912C37.0983 50.1062 37.1696 50.1137 37.2401 50.1137C37.7162 50.1137 38.1437 49.7804 38.246 49.2944L36.2311 48.8688ZM36.2311 48.8688L40.7054 27.5828M36.2311 48.8688L40.7054 27.5828M40.7054 27.5828C40.8226 27.0253 41.3685 26.6685 41.9251 26.7859L40.7054 27.5828ZM42.7203 28.0084L38.246 49.2943L41.9251 26.7859C42.4812 26.9034 42.8376 27.4503 42.7203 28.0084C42.7203 28.0084 42.7203 28.0084 42.7203 28.0084Z" fill="#0A2235" stroke="#C3D6EB" stroke-width="0.159691"/>
    <path d="M13.6303 61.8702H65.9328C70.0842 61.8702 73.4618 58.4863 73.4618 54.3263V9.84616C73.4618 5.68683 70.0842 2.3023 65.9328 2.3023H13.6303C9.47892 2.3023 6.10137 5.68683 6.10137 9.84616V54.3263C6.10137 58.4863 9.47893 61.8702 13.6303 61.8702ZM8.47995 9.84616C8.47995 7.00053 10.7908 4.68531 13.6303 4.68531H65.9328C68.7723 4.68531 71.0832 7.00053 71.0832 9.84616V54.3263C71.0832 57.1719 68.7723 59.4872 65.9328 59.4872H13.6303C10.7908 59.4872 8.47995 57.1719 8.47995 54.3263V9.84616Z" fill="#0A2235" stroke="#C3D6EB" stroke-width="0.159691"/>
    <path d="M25.1371 14.7837C23.246 14.7837 21.7059 13.2408 21.7059 11.3455C21.7059 9.44967 23.246 7.90739 25.1371 7.90739C27.0288 7.90739 28.5682 9.44966 28.5682 11.3455C28.5682 13.2408 27.0288 14.7837 25.1371 14.7837ZM25.1371 9.97102C24.3809 9.97102 23.7651 10.5875 23.7651 11.3455C23.7651 12.1035 24.3809 12.72 25.1371 12.72C25.8939 12.72 26.509 12.1035 26.509 11.3455C26.509 10.5876 25.8939 9.97102 25.1371 9.97102Z" fill="#0A2235" stroke="#C3D6EB" stroke-width="0.159691"/>
    <path d="M14.3498 14.7496C12.4581 14.7496 10.9187 13.2073 10.9187 11.3114C10.9187 9.41557 12.4581 7.8733 14.3498 7.8733C16.2416 7.8733 17.781 9.41557 17.781 11.3114C17.781 13.2073 16.2416 14.7496 14.3498 14.7496ZM14.3498 9.93694C13.5936 9.93694 12.9779 10.5541 12.9779 11.3114C12.9779 12.0694 13.5936 12.686 14.3498 12.686C15.1067 12.686 15.7218 12.0694 15.7218 11.3114C15.7218 10.5541 15.1067 9.93694 14.3498 9.93694Z" fill="#0A2235" stroke="#C3D6EB" stroke-width="0.159691"/>
    <path d="M35.9245 14.8172C34.0334 14.8172 32.494 13.2749 32.494 11.379C32.494 9.48377 34.0334 7.94151 35.9245 7.94151C37.8162 7.94151 39.3556 9.48378 39.3556 11.379C39.3556 13.2749 37.8162 14.8172 35.9245 14.8172ZM35.9245 10.0045C35.1682 10.0045 34.5532 10.6211 34.5532 11.379C34.5532 12.137 35.1682 12.7535 35.9245 12.7535C36.6813 12.7535 37.2964 12.137 37.2964 11.379C37.2964 10.6211 36.6813 10.0045 35.9245 10.0045Z" fill="#0A2235" stroke="#C3D6EB" stroke-width="0.159691"/>
    <rect x="8.24164" y="17.469" width="63.8724" height="2.06452" fill="#0A2235"/>
</svg>
