<svg width="79" height="71" xmlns="http://www.w3.org/2000/svg" fill="none">

 <g>
  <title>Layer 1</title>
  <path id="svg_1" fill="#C3D6EB" d="m51.12064,3.28714c-6.9086,-2.59801 -14.257,-3.68817 -21.4531,-2.327c-8.0446,1.5217 -16.1103,4.3561 -21.3289,10.4195c-5.4963,6.3861 -8.23948,14.8855 -7.67297,23.2773c0.55739,8.2564 4.63167,16.1499 10.73247,22.0427c5.6376,5.4455 13.794,6.5306 21.3257,8.923c7.7373,2.4576 15.2363,6.585 23.1763,5.2124c8.6512,-1.4955 18.357,-5.1789 21.7885,-12.9853c3.4042,-7.7444 -3.3785,-16.0726 -5.3688,-24.3684c-1.5095,-6.2916 -1.1033,-12.9463 -4.8715,-18.3134c-3.9236,-5.5884 -9.8428,-9.4421 -16.3277,-11.8808z" clip-rule="evenodd" fill-rule="evenodd"/>
  <path id="svg_2" stroke-width="0.16405" stroke="#C3D6EB" fill="#0A2235" d="m17.26499,64.32584l53.3728,0c4.2363,0 7.6836,-3.4368 7.6836,-7.6627l0,-45.1751c0,-4.2252 -3.4473,-7.6627 -7.6836,-7.6627l-53.3728,0c-4.2363,0 -7.6836,3.4375 -7.6836,7.6627l0,45.1751c0,4.2259 3.4473,7.6627 7.6836,7.6627zm-5.2552,-52.8378c0,-2.8892 2.3575,-5.2406 5.2552,-5.2406l53.3728,0c2.8978,0 5.2553,2.3514 5.2553,5.2406l0,45.1751c0,2.8892 -2.3575,5.2406 -5.2553,5.2406l-53.3728,0c-2.8977,0 -5.2552,-2.3514 -5.2552,-5.2406l0,-45.1751z"/>
  <path id="svg_3" stroke-width="0.16405" stroke="#C3D6EB" fill="#0A2235" d="m29.00729,16.50184c-1.9299,0 -3.5008,-1.5669 -3.5008,-3.4909c0,-1.9246 1.5709,-3.491 3.5008,-3.491c1.9305,0 3.5008,1.5663 3.5008,3.491c0,1.924 -1.5703,3.4909 -3.5008,3.4909zm0,-4.8879c-0.7716,0 -1.4006,0.6262 -1.4006,1.397c0,0.7707 0.629,1.3969 1.4006,1.3969c0.7723,0 1.4005,-0.6262 1.4005,-1.3969c0,-0.7707 -0.6282,-1.397 -1.4005,-1.397z"/>
  <path id="svg_4" stroke-width="0.16405" stroke="#C3D6EB" fill="#0A2235" d="m17.99919,16.46714c-1.9305,0 -3.5008,-1.5663 -3.5008,-3.4909c0,-1.9246 1.5703,-3.4909 3.5008,-3.4909c1.9305,0 3.5008,1.5663 3.5008,3.4909c0,1.9246 -1.5703,3.4909 -3.5008,3.4909zm0,-4.8878c-0.7717,0 -1.4006,0.6268 -1.4006,1.3969c0,0.7707 0.629,1.3969 1.4006,1.3969c0.7723,0 1.4005,-0.6262 1.4005,-1.3969c0,-0.77 -0.6282,-1.3969 -1.4005,-1.3969z"/>
  <path id="svg_5" stroke-width="0.16405" stroke="#C3D6EB" fill="#0A2235" d="m40.01539,16.53584c-1.9298,0 -3.5002,-1.5663 -3.5002,-3.491c0,-1.924 1.5704,-3.4903 3.5002,-3.4903c1.9305,0 3.5008,1.5664 3.5008,3.4903c0,1.9247 -1.5703,3.491 -3.5008,3.491zm0,-4.8879c-0.7716,0 -1.3999,0.6263 -1.3999,1.3969c0,0.7707 0.6283,1.397 1.3999,1.397c0.7723,0 1.4006,-0.6263 1.4006,-1.397c0,-0.7707 -0.6283,-1.3969 -1.4006,-1.3969z"/>
  <rect id="svg_6" fill="#0A2235" height="2.1209" width="65.6167" y="19.43124" x="11.84099"/>
  <path id="svg_7" fill="#0A2235" d="m43.95109,50.49074c4.7034,0 9.4649,-1.5132 9.4649,-4.4055l0,-6.2598l4.4541,-1.958l0,11.5219c0,0.6082 0.4986,1.1014 1.1135,1.1014c0.6149,0 1.1135,-0.4932 1.1135,-1.1014l0,-13.2166c0,-0.4884 -0.3086,-0.8604 -0.6818,-1.0155l-15.012,-6.5993c-0.288,-0.1266 -0.6166,-0.1266 -0.9045,0l-15.0325,6.6083c-0.402,0.1768 -0.6612,0.5712 -0.6612,1.0065c0,0.4351 0.2591,0.8297 0.6612,1.0064l6.0199,2.6463l0,6.2598c0,2.8923 4.7614,4.4055 9.4649,4.4055zm7.2379,-4.4055c0,0.6587 -2.4626,2.2027 -7.2379,2.2027c-4.7753,0 -7.2379,-1.544 -7.2379,-2.2027l0,-5.2806l6.7856,2.983c0.1439,0.0632 0.2982,0.0948 0.4523,0.0948c0.1541,0 0.3083,-0.0316 0.4523,-0.0948l6.7856,-2.9831l0,5.2807zm-19.5288,-9.9124l12.2909,-5.4032l12.2909,5.4032l-12.2909,5.403l-12.2909,-5.403z"/>
 </g>
</svg>