<svg width="84" height="69" xmlns="http://www.w3.org/2000/svg" fill="none">
 <defs>
  <clipPath id="clip0">
   <rect id="svg_1" fill="white" height="92" width="102"/>
  </clipPath>
 </defs>
 <g>
  <title>Layer 1</title>
  <g id="svg_2" clip-path="url(#clip0)">
   <path id="svg_3" fill="#C3D6EB" d="m54.60022,1.84191c7.0221,2.1628 13.472,5.7808 18.3087,11.2361c5.407,6.0985 10.0311,13.2435 10.4464,21.1965c0.4375,8.3762 -2.5802,16.7393 -8.1381,23.0015c-5.4683,6.1612 -13.4846,9.8943 -21.8777,10.8178c-7.7559,0.8533 -14.839,-3.2608 -22.2265,-5.9652c-7.5891,-2.7781 -16.0077,-4.0965 -21.4231,-10.0139c-5.9006,-6.4474 -11.29881,-15.2599 -9.2453,-23.4967c2.0372,-8.1713 12.4508,-10.5968 19.0713,-15.9161c5.0211,-4.0342 8.755,-9.5213 14.9913,-11.4517c6.4935,-2.01 13.5015,-1.4385 20.093,0.5917z" clip-rule="evenodd" fill-rule="evenodd"/>
   <path id="svg_4" stroke-width="0.16331" stroke="#C3D6EB" fill="#0A2235" d="m18.59332,63.44171l53.3728,0c4.2361,0 7.6832,-3.4367 7.6832,-7.6623l0,-45.1752c0,-4.225 -3.4471,-7.6623 -7.6832,-7.6623l-53.3728,0c-4.2361,0 -7.6833,3.4373 -7.6833,7.6623l0,45.1752c0,4.2256 3.4472,7.6623 7.6833,7.6623zm-5.2556,-52.8375c0,-2.8894 2.3576,-5.2409 5.2556,-5.2409l53.3728,0c2.8979,0 5.2556,2.3515 5.2556,5.2409l0,45.1752c0,2.8894 -2.3577,5.2409 -5.2556,5.2409l-53.3728,0c-2.898,0 -5.2556,-2.3515 -5.2556,-5.2409l0,-45.1752z"/>
   <path id="svg_5" stroke-width="0.16331" stroke="#C3D6EB" fill="#0A2235" d="m30.33562,15.61841c-1.9301,0 -3.5012,-1.5671 -3.5012,-3.4913c0,-1.9248 1.5711,-3.4913 3.5012,-3.4913c1.9307,0 3.5011,1.5664 3.5011,3.4913c0,1.9242 -1.5704,3.4913 -3.5011,3.4913zm0,-4.8879c-0.7714,0 -1.4002,0.6261 -1.4002,1.3966c0,0.7705 0.6288,1.3965 1.4002,1.3965c0.772,0 1.4002,-0.626 1.4002,-1.3965c0,-0.7705 -0.6282,-1.3966 -1.4002,-1.3966z"/>
   <path id="svg_6" stroke-width="0.16331" stroke="#C3D6EB" fill="#0A2235" d="m19.32752,15.58371c-1.9307,0 -3.5012,-1.5665 -3.5012,-3.4913c0,-1.9248 1.5705,-3.4913 3.5012,-3.4913c1.9306,0 3.5011,1.5665 3.5011,3.4913c0,1.9248 -1.5705,3.4913 -3.5011,3.4913zm0,-4.8878c-0.7715,0 -1.4002,0.6266 -1.4002,1.3965c0,0.7705 0.6287,1.3966 1.4002,1.3966c0.772,0 1.4001,-0.6261 1.4001,-1.3966c0,-0.7698 -0.6281,-1.3965 -1.4001,-1.3965z"/>
   <path id="svg_7" stroke-width="0.16331" stroke="#C3D6EB" fill="#0A2235" d="m41.34372,15.65241c-1.9301,0 -3.5006,-1.5665 -3.5006,-3.4913c0,-1.9242 1.5705,-3.4907 3.5006,-3.4907c1.9307,0 3.5011,1.5665 3.5011,3.4907c0,1.9248 -1.5704,3.4913 -3.5011,3.4913zm0,-4.8878c-0.7715,0 -1.3996,0.6261 -1.3996,1.3965c0,0.7705 0.6281,1.3966 1.3996,1.3966c0.772,0 1.4002,-0.6261 1.4002,-1.3966c0,-0.7705 -0.6282,-1.3965 -1.4002,-1.3965z"/>
   <rect id="svg_8" fill="#0A2235" height="2.11133" width="65.3208" y="18.46261" x="13.19312"/>
   <rect id="svg_9" fill="#0A2235" rx="0.72724" height="2.18171" width="19.999" y="26.66891" x="35.73742"/>
   <rect id="svg_10" fill="#0A2235" rx="0.72724" height="2.18171" width="13.8175" y="41.57721" x="31.73772"/>
   <rect id="svg_11" fill="#0A2235" rx="0.72724" height="2.18171" width="14.5447" y="41.57721" x="46.28242"/>
   <rect transform="rotate(-90 44.8279 43.7589)" id="svg_12" fill="#0A2235" height="2.18171" width="5.45428" y="43.75891" x="44.82792"/>
   <rect transform="rotate(-90 31.374 47.0315)" id="svg_13" fill="#0A2235" rx="0.72724" height="2.18171" width="5.45428" y="47.03151" x="31.37402"/>
   <rect transform="rotate(-90 58.6454 47.3951)" id="svg_14" fill="#0A2235" rx="0.72724" height="2.18171" width="5.45428" y="47.39511" x="58.64542"/>
   <rect id="svg_15" stroke-width="1.81809" stroke="#0A2235" rx="0.90905" height="7.63599" width="18.1809" y="46.48601" x="23.19262"/>
   <rect id="svg_16" stroke-width="1.81809" stroke="#0A2235" rx="0.90905" height="7.63599" width="18.1809" y="46.48601" x="50.46402"/>
   <rect id="svg_17" stroke-width="1.81809" stroke="#0A2235" rx="0.90905" height="7.63599" width="18.1809" y="31.21411" x="36.64652"/>
  </g>
 </g>
</svg>