<svg width="77" height="73" xmlns="http://www.w3.org/2000/svg" fill="none">
 <g>
  <title>Layer 1</title>
  <path fill-rule="evenodd" clip-rule="evenodd" d="m23.44837,4.72974c6.6041,-3.1034 13.7602,-4.7553 20.959,-3.9796c8.0475,0.8673 16.219,3.0266 21.8386,8.5919c5.9186,5.8614 9.29,14.0219 9.3914,22.3364c0.0997,8.1805 -3.295,16.2797 -8.8441,22.5667c-5.1278,5.8096 -13.0806,7.5202 -20.315,10.4699c-7.4319,3.0302 -14.4977,7.6871 -22.4304,6.9586c-8.6433,-0.7938 -18.4979,-3.6608 -22.4933,-11.0843c-3.9636,-7.3644 2.0661,-16.105 3.3755,-24.4369c0.993,-6.319 0.0696,-12.8453 3.3613,-18.4307c3.4274,-5.8158 8.9578,-10.0789 15.157,-12.992z" fill="#C3D6EB" id="svg_1"/>
  <path d="m11.66967,64.93904l52.7219,0c4.1857,0 7.59,-3.4373 7.59,-7.6617l0,-45.1752c0,-4.2237 -3.4043,-7.6617 -7.59,-7.6617l-52.7219,0c-4.1856,0 -7.5899,3.438 -7.5899,7.6617l0,45.1752c0,4.2244 3.4043,7.6617 7.5899,7.6617zm-5.191,-52.8369c0,-2.8906 2.3296,-5.2415 5.191,-5.2415l52.7219,0c2.8615,0 5.1911,2.3509 5.1911,5.2415l0,45.1752c0,2.8907 -2.3296,5.2415 -5.1911,5.2415l-52.7219,0c-2.8614,0 -5.191,-2.3508 -5.191,-5.2415l0,-45.1752z" fill="#0A2235" stroke="#C3D6EB" stroke-width="0.16219" id="svg_2"/>
  <path d="m23.26877,17.11684c-1.9053,0 -3.458,-1.5664 -3.458,-3.4919c0,-1.9261 1.5527,-3.4919 3.458,-3.4919c1.906,0 3.4581,1.5658 3.4581,3.4919c0,1.9255 -1.5521,3.4919 -3.4581,3.4919zm0,-4.8879c-0.7631,0 -1.3835,0.6267 -1.3835,1.396c0,0.7693 0.6204,1.396 1.3835,1.396c0.7639,0 1.3836,-0.6268 1.3836,-1.396c0,-0.7692 -0.6197,-1.396 -1.3836,-1.396z" fill="#0A2235" stroke="#C3D6EB" stroke-width="0.16219" id="svg_3"/>
  <path d="m12.39487,17.08214c-1.9059,0 -3.458,-1.5658 -3.458,-3.4919c0,-1.926 1.5521,-3.4918 3.458,-3.4918c1.906,0 3.4581,1.5658 3.4581,3.4918c0,1.9261 -1.5521,3.4919 -3.4581,3.4919zm0,-4.8879c-0.7631,0 -1.3835,0.6274 -1.3835,1.396c0,0.7693 0.6204,1.396 1.3835,1.396c0.7639,0 1.3836,-0.6267 1.3836,-1.396c0,-0.7685 -0.6197,-1.396 -1.3836,-1.396z" fill="#0A2235" stroke="#C3D6EB" stroke-width="0.16219" id="svg_4"/>
  <path d="m34.14267,17.15084c-1.9053,0 -3.4574,-1.5658 -3.4574,-3.4919c0,-1.9254 1.5521,-3.4912 3.4574,-3.4912c1.906,0 3.458,1.5658 3.458,3.4912c0,1.9261 -1.552,3.4919 -3.458,3.4919zm0,-4.8878c-0.7632,0 -1.3829,0.6267 -1.3829,1.3959c0,0.7692 0.6197,1.396 1.3829,1.396c0.7638,0 1.3835,-0.6267 1.3835,-1.396c0,-0.7692 -0.6197,-1.3959 -1.3835,-1.3959z" fill="#0A2235" stroke="#C3D6EB" stroke-width="0.16219" id="svg_5"/>
  <rect x="6.32647" y="19.84414" width="64.8704" height="2.09677" fill="#0A2235" id="svg_6"/>
  <rect x="42.51167" y="30.16034" width="19.8611" height="2.16667" rx="0.72222" fill="#0A2235" id="svg_7"/>
  <rect x="42.51167" y="37.02154" width="19.8611" height="2.16667" rx="0.72222" fill="#0A2235" id="svg_8"/>
  <rect x="42.51167" y="43.88264" width="19.8611" height="2.16667" rx="0.72222" fill="#0A2235" id="svg_9"/>
  <rect x="42.51167" y="50.74374" width="19.8611" height="2.16667" rx="0.72222" fill="#0A2235" id="svg_10"/>
  <rect x="13.44217" y="31.06314" width="18.0556" height="20.9444" rx="0.90278" stroke="#0A2235" stroke-width="1.80556" id="svg_11"/>
 </g>

</svg>