<svg xmlns="http://www.w3.org/2000/svg" fill="none" viewBox="0 0 80 1517"><circle cx="40" cy="40" r="39" stroke="#0A2235" stroke-width="2"/><path fill="#0A2235" d="M28.8 53.432c-1.632 0-3.048-.288-4.248-.864a8.072 8.072 0 0 1-2.988-2.556c-.768-1.104-1.344-2.46-1.728-4.068-.36-1.608-.54-3.444-.54-5.508 0-2.04.18-3.864.54-5.472.384-1.632.96-3 1.728-4.104a7.764 7.764 0 0 1 2.988-2.52c1.2-.6 2.616-.9 4.248-.9 3.264 0 5.664 1.14 7.2 3.42 1.536 2.28 2.304 5.472 2.304 9.576s-.768 7.296-2.304 9.576c-1.536 2.28-3.936 3.42-7.2 3.42zm0-3.78c1.728 0 2.94-.612 3.636-1.836.72-1.248 1.08-2.964 1.08-5.148v-4.464c0-2.184-.36-3.888-1.08-5.112-.696-1.248-1.908-1.872-3.636-1.872-1.728 0-2.952.624-3.672 1.872-.696 1.224-1.044 2.928-1.044 5.112v4.464c0 2.184.348 3.9 1.044 5.148.72 1.224 1.944 1.836 3.672 1.836zm0-7.092c-.84 0-1.428-.168-1.764-.504a1.734 1.734 0 0 1-.468-1.224v-.792c0-.48.156-.888.468-1.224.336-.336.924-.504 1.764-.504s1.416.168 1.728.504c.336.336.504.744.504 1.224v.792c0 .48-.168.888-.504 1.224-.312.336-.888.504-1.728.504zM42.862 53v-3.852h6.912V31.292h-.324l-5.472 6.48-2.952-2.484 6.228-7.416h7.236v21.276h5.688V53H42.862z"/><circle cx="40" cy="399" r="39" stroke="#0A2235" stroke-width="2"/><path fill="#0A2235" d="M28.8 413.432c-1.632 0-3.048-.288-4.248-.864a8.072 8.072 0 0 1-2.988-2.556c-.768-1.104-1.344-2.46-1.728-4.068-.36-1.608-.54-3.444-.54-5.508 0-2.04.18-3.864.54-5.472.384-1.632.96-3 1.728-4.104a7.764 7.764 0 0 1 2.988-2.52c1.2-.6 2.616-.9 4.248-.9 3.264 0 5.664 1.14 7.2 3.42 1.536 2.28 2.304 5.472 2.304 9.576s-.768 7.296-2.304 9.576c-1.536 2.28-3.936 3.42-7.2 3.42zm0-3.78c1.728 0 2.94-.612 3.636-1.836.72-1.248 1.08-2.964 1.08-5.148v-4.464c0-2.184-.36-3.888-1.08-5.112-.696-1.248-1.908-1.872-3.636-1.872-1.728 0-2.952.624-3.672 1.872-.696 1.224-1.044 2.928-1.044 5.112v4.464c0 2.184.348 3.9 1.044 5.148.72 1.224 1.944 1.836 3.672 1.836zm0-7.092c-.84 0-1.428-.168-1.764-.504a1.734 1.734 0 0 1-.468-1.224v-.792c0-.48.156-.888.468-1.224.336-.336.924-.504 1.764-.504s1.416.168 1.728.504c.336.336.504.744.504 1.224v.792c0 .48-.168.888-.504 1.224-.312.336-.888.504-1.728.504zM59.386 413H41.674v-4.392l8.064-6.876c1.344-1.152 2.34-2.196 2.988-3.132.648-.96.972-1.98.972-3.06v-.36c0-1.2-.336-2.112-1.008-2.736-.672-.624-1.608-.936-2.808-.936-1.32 0-2.328.36-3.024 1.08-.696.72-1.2 1.608-1.512 2.664l-4.104-1.548a9.957 9.957 0 0 1 1.116-2.34 8.63 8.63 0 0 1 1.836-2.016c.744-.576 1.62-1.032 2.628-1.368 1.008-.36 2.16-.54 3.456-.54 1.344 0 2.532.192 3.564.576 1.056.36 1.944.876 2.664 1.548a6.134 6.134 0 0 1 1.62 2.34c.384.912.576 1.908.576 2.988 0 1.032-.168 1.98-.504 2.844a9.977 9.977 0 0 1-1.332 2.484 16.025 16.025 0 0 1-2.052 2.232c-.768.72-1.608 1.44-2.52 2.16l-5.472 4.428h12.564V413z"/><circle cx="40" cy="759" r="39" stroke="#0A2235" stroke-width="2"/><path fill="#0A2235" d="M28.8 773.432c-1.632 0-3.048-.288-4.248-.864a8.072 8.072 0 0 1-2.988-2.556c-.768-1.104-1.344-2.46-1.728-4.068-.36-1.608-.54-3.444-.54-5.508 0-2.04.18-3.864.54-5.472.384-1.632.96-3 1.728-4.104a7.764 7.764 0 0 1 2.988-2.52c1.2-.6 2.616-.9 4.248-.9 3.264 0 5.664 1.14 7.2 3.42 1.536 2.28 2.304 5.472 2.304 9.576s-.768 7.296-2.304 9.576c-1.536 2.28-3.936 3.42-7.2 3.42zm0-3.78c1.728 0 2.94-.612 3.636-1.836.72-1.248 1.08-2.964 1.08-5.148v-4.464c0-2.184-.36-3.888-1.08-5.112-.696-1.248-1.908-1.872-3.636-1.872-1.728 0-2.952.624-3.672 1.872-.696 1.224-1.044 2.928-1.044 5.112v4.464c0 2.184.348 3.9 1.044 5.148.72 1.224 1.944 1.836 3.672 1.836zm0-7.092c-.84 0-1.428-.168-1.764-.504a1.734 1.734 0 0 1-.468-1.224v-.792c0-.48.156-.888.468-1.224.336-.336.924-.504 1.764-.504s1.416.168 1.728.504c.336.336.504.744.504 1.224v.792c0 .48-.168.888-.504 1.224-.312.336-.888.504-1.728.504zm20.578-4.536c1.512 0 2.616-.3 3.312-.9.72-.6 1.08-1.356 1.08-2.268v-.252c0-1.032-.348-1.836-1.044-2.412-.672-.576-1.608-.864-2.808-.864-1.152 0-2.16.264-3.024.792-.864.528-1.608 1.272-2.232 2.232l-3.06-2.736c.432-.576.912-1.116 1.44-1.62a8.346 8.346 0 0 1 1.836-1.332 9.798 9.798 0 0 1 2.304-.9c.84-.216 1.8-.324 2.88-.324 1.272 0 2.436.156 3.492.468 1.08.288 1.992.72 2.736 1.296a5.873 5.873 0 0 1 1.764 2.088c.432.792.648 1.692.648 2.7 0 .792-.132 1.512-.396 2.16a5.371 5.371 0 0 1-1.08 1.692c-.432.48-.948.876-1.548 1.188-.576.312-1.2.54-1.872.684v.18a7.68 7.68 0 0 1 2.088.72 5.77 5.77 0 0 1 1.692 1.224c.48.504.864 1.116 1.152 1.836.288.696.432 1.488.432 2.376 0 1.104-.228 2.112-.684 3.024a6.734 6.734 0 0 1-1.944 2.34c-.816.648-1.812 1.152-2.988 1.512-1.152.336-2.448.504-3.888.504-1.2 0-2.268-.132-3.204-.396-.936-.24-1.764-.576-2.484-1.008a8.924 8.924 0 0 1-1.872-1.476 15.582 15.582 0 0 1-1.404-1.764l3.492-2.7c.6 1.008 1.308 1.836 2.124 2.484.84.648 1.98.972 3.42.972s2.544-.324 3.312-.972c.792-.672 1.188-1.596 1.188-2.772v-.288c0-1.152-.42-2.028-1.26-2.628-.84-.624-2.028-.936-3.564-.936h-2.52v-3.924h2.484z"/><circle cx="40" cy="1117" r="39" stroke="#0A2235" stroke-width="2"/><path fill="#0A2235" d="M28.8 1131.43c-1.632 0-3.048-.29-4.248-.86a8.028 8.028 0 0 1-2.988-2.56c-.768-1.1-1.344-2.46-1.728-4.07-.36-1.6-.54-3.44-.54-5.5 0-2.04.18-3.87.54-5.48.384-1.63.96-3 1.728-4.1a7.834 7.834 0 0 1 2.988-2.52c1.2-.6 2.616-.9 4.248-.9 3.264 0 5.664 1.14 7.2 3.42 1.536 2.28 2.304 5.47 2.304 9.58 0 4.1-.768 7.29-2.304 9.57-1.536 2.28-3.936 3.42-7.2 3.42zm0-3.78c1.728 0 2.94-.61 3.636-1.83.72-1.25 1.08-2.97 1.08-5.15v-4.47c0-2.18-.36-3.88-1.08-5.11-.696-1.25-1.908-1.87-3.636-1.87-1.728 0-2.952.62-3.672 1.87-.696 1.23-1.044 2.93-1.044 5.11v4.47c0 2.18.348 3.9 1.044 5.15.72 1.22 1.944 1.83 3.672 1.83zm0-7.09c-.84 0-1.428-.17-1.764-.5a1.755 1.755 0 0 1-.468-1.23v-.79c0-.48.156-.89.468-1.22.336-.34.924-.51 1.764-.51s1.416.17 1.728.51c.336.33.504.74.504 1.22v.79c0 .48-.168.89-.504 1.23-.312.33-.888.5-1.728.5zM52.222 1131v-4.86H40.594v-4.03l10.26-16.24h5.868v16.6h3.384v3.67h-3.384v4.86h-4.5zm-7.776-8.53h7.776v-11.99h-.288l-7.488 11.99z"/><circle cx="40" cy="1477" r="39" stroke="#0A2235" stroke-width="2"/><path fill="#0A2235" d="M28.8 1491.43c-1.632 0-3.048-.29-4.248-.86a8.028 8.028 0 0 1-2.988-2.56c-.768-1.1-1.344-2.46-1.728-4.07-.36-1.6-.54-3.44-.54-5.5 0-2.04.18-3.87.54-5.48.384-1.63.96-3 1.728-4.1a7.834 7.834 0 0 1 2.988-2.52c1.2-.6 2.616-.9 4.248-.9 3.264 0 5.664 1.14 7.2 3.42 1.536 2.28 2.304 5.47 2.304 9.58 0 4.1-.768 7.29-2.304 9.57-1.536 2.28-3.936 3.42-7.2 3.42zm0-3.78c1.728 0 2.94-.61 3.636-1.83.72-1.25 1.08-2.97 1.08-5.15v-4.47c0-2.18-.36-3.88-1.08-5.11-.696-1.25-1.908-1.87-3.636-1.87-1.728 0-2.952.62-3.672 1.87-.696 1.23-1.044 2.93-1.044 5.11v4.47c0 2.18.348 3.9 1.044 5.15.72 1.22 1.944 1.83 3.672 1.83zm0-7.09c-.84 0-1.428-.17-1.764-.5a1.755 1.755 0 0 1-.468-1.23v-.79c0-.48.156-.89.468-1.22.336-.34.924-.51 1.764-.51s1.416.17 1.728.51c.336.33.504.74.504 1.22v.79c0 .48-.168.89-.504 1.23-.312.33-.888.5-1.728.5zm29.434-10.58h-11.52l-.612 8.42h.288c.288-.53.6-1.01.936-1.44.336-.46.72-.84 1.152-1.15.456-.31.96-.55 1.512-.72.576-.17 1.236-.25 1.98-.25 1.056 0 2.052.18 2.988.54.936.36 1.752.87 2.448 1.54.696.68 1.236 1.5 1.62 2.49.408.98.612 2.1.612 3.35 0 1.24-.216 2.4-.648 3.45a7.616 7.616 0 0 1-1.836 2.77c-.792.77-1.776 1.37-2.952 1.8-1.152.44-2.484.65-3.996.65-1.176 0-2.232-.13-3.168-.39a8.848 8.848 0 0 1-2.412-1.01 9.356 9.356 0 0 1-1.836-1.48c-.528-.57-.984-1.16-1.368-1.76l3.42-2.7c.288.48.6.93.936 1.37.36.4.756.76 1.188 1.08.432.31.912.56 1.44.75.552.17 1.176.25 1.872.25 1.44 0 2.532-.38 3.276-1.15.768-.79 1.152-1.87 1.152-3.24v-.29c0-1.32-.384-2.35-1.152-3.09-.768-.75-1.848-1.12-3.24-1.12-1.056 0-1.92.21-2.592.61-.648.39-1.176.81-1.584 1.26l-3.852-.54.936-14.11h15.012v4.11zM39 79h2v280h-2zM39 439h2v280h-2zM39 798h2v280h-2zM39 1157h2v280h-2z"/></svg>