<svg width="81" height="65" viewBox="0 0 81 65" fill="none" xmlns="http://www.w3.org/2000/svg">
    <g clip-path="url(#clip0)">
        <path fill-rule="evenodd" clip-rule="evenodd" d="M41.0626 0.132334C33.7849 -0.397837 26.5121 0.624834 20.0697 3.92924C12.8677 7.62326 6.01298 12.5679 2.76147 19.7776C-0.663055 27.3709 -0.885635 36.1976 1.99983 43.9961C4.8388 51.6688 10.9109 58.0132 18.3446 61.8936C25.214 65.4793 33.2515 64.2258 41.0626 64.3866C49.0868 64.5517 57.3523 66.3667 64.4968 62.8434C72.2813 59.0045 80.4536 52.7958 81.5228 44.4336C82.5835 36.1378 73.8216 30.139 69.6129 22.83C66.421 17.2868 64.944 10.8631 59.869 6.82857C54.5849 2.62763 47.8939 0.629991 41.0626 0.132334Z" fill="#C3D6EB"/>
        <path d="M14.3186 62.5842H67.0405C71.2261 62.5842 74.6305 59.1469 74.6305 54.9225V9.74733C74.6305 5.52359 71.2261 2.08559 67.0405 2.08559H14.3186C10.133 2.08559 6.72863 5.52359 6.72863 9.74733V54.9225C6.72863 59.1469 10.133 62.5842 14.3186 62.5842ZM9.1275 9.74733C9.1275 6.85666 11.4572 4.50584 14.3186 4.50584H67.0405C69.9019 4.50584 72.2316 6.85666 72.2316 9.74733V54.9225C72.2316 57.8132 69.9019 60.164 67.0405 60.164H14.3186C11.4572 60.164 9.1275 57.8132 9.1275 54.9225V9.74733Z" fill="#0A2235" stroke="#C3D6EB" stroke-width="0.162186"/>
        <path d="M25.9177 14.762C24.0123 14.762 22.4596 13.1956 22.4596 11.2701C22.4596 9.34406 24.0123 7.77827 25.9177 7.77827C27.8236 7.77827 29.3757 9.34405 29.3757 11.2701C29.3757 13.1956 27.8236 14.762 25.9177 14.762ZM25.9177 9.87415C25.1545 9.87415 24.5341 10.5009 24.5341 11.2701C24.5341 12.0394 25.1545 12.6661 25.9177 12.6661C26.6815 12.6661 27.3012 12.0394 27.3012 11.2701C27.3012 10.5009 26.6815 9.87415 25.9177 9.87415Z" fill="#0A2235" stroke="#C3D6EB" stroke-width="0.162186"/>
        <path d="M15.0438 14.7274C13.1378 14.7274 11.5858 13.1616 11.5858 11.2355C11.5858 9.30942 13.1378 7.74363 15.0438 7.74363C16.9498 7.74363 18.5018 9.30942 18.5018 11.2355C18.5018 13.1616 16.9498 14.7274 15.0438 14.7274ZM15.0438 9.83951C14.2806 9.83951 13.6603 10.4669 13.6603 11.2355C13.6603 12.0048 14.2806 12.6315 15.0438 12.6315C15.8076 12.6315 16.4273 12.0047 16.4273 11.2355C16.4273 10.4669 15.8076 9.83951 15.0438 9.83951Z" fill="#0A2235" stroke="#C3D6EB" stroke-width="0.162186"/>
        <path d="M36.7916 14.796C34.8862 14.796 33.3342 13.2302 33.3342 11.3041C33.3342 9.37869 34.8862 7.8129 36.7916 7.8129C38.6976 7.8129 40.2496 9.3787 40.2496 11.3041C40.2496 13.2302 38.6975 14.796 36.7916 14.796ZM36.7916 9.90815C36.0284 9.90815 35.4087 10.5349 35.4087 11.3041C35.4087 12.0733 36.0284 12.7001 36.7916 12.7001C37.5554 12.7001 38.1751 12.0734 38.1751 11.3041C38.1751 10.5349 37.5554 9.90815 36.7916 9.90815Z" fill="#0A2235" stroke="#C3D6EB" stroke-width="0.162186"/>
        <rect x="8.95372" y="17.4893" width="64.8704" height="2.09677" fill="#0A2235"/>
        <path d="M52.1547 44.4445V44.4455C52.1547 45.3611 51.8304 45.8609 51.4353 46.14C51.0289 46.4271 50.5175 46.5019 50.1151 46.5019H49.241V37.1546H50.1428C50.5378 37.1546 51.0492 37.2255 51.4576 37.5107C51.8541 37.7877 52.1823 38.287 52.1825 39.2104C52.1825 39.2106 52.1825 39.2108 52.1825 39.211L52.1547 44.4445ZM50.8495 35.7325C50.7665 30.1468 46.2461 25.6422 40.6792 25.6422C35.1122 25.6422 30.5918 30.1468 30.5088 35.7326C29.8195 35.8458 29.148 36.1361 28.6362 36.6622C28.0831 37.2308 27.7324 38.0585 27.7324 39.1886V44.4455C27.7324 45.7215 28.1778 46.6138 28.8539 47.184C29.5248 47.7497 30.4025 47.9815 31.2433 47.9815H32.8529C33.2604 47.9815 33.5885 47.649 33.5885 47.2417V36.4148C33.5885 36.0075 33.2604 35.675 32.8529 35.675H31.9807C32.0761 30.9151 35.9353 27.0882 40.6792 27.0882C45.4231 27.0882 49.2823 30.9151 49.3777 35.675H48.5054C48.0979 35.675 47.7698 36.0075 47.7698 36.4148V47.2249C47.7698 47.6322 48.0979 47.9647 48.5054 47.9647H49.3705C49.2698 49.7471 48.7856 50.8174 47.9402 51.4737C47.0846 52.1381 45.8239 52.4084 44.0957 52.4992V52.314C44.0957 51.5978 43.5191 51.015 42.805 51.015H39.3137C38.5996 51.015 38.0231 51.5978 38.0231 52.314V54.1315C38.0231 54.8477 38.5996 55.4306 39.3137 55.4306H42.8161C43.5302 55.4306 44.1068 54.8477 44.1068 54.1315V53.9791C45.8051 53.8911 47.4242 53.654 48.6521 52.8021C49.9115 51.9283 50.7257 50.4341 50.8444 47.9079C51.5355 47.7953 52.209 47.5049 52.7221 46.9775C53.2753 46.4089 53.626 45.5811 53.626 44.4511V39.1942C53.626 38.059 53.2769 37.2297 52.7243 36.6609C52.2128 36.1344 51.541 35.8455 50.8495 35.7325ZM32.1173 37.1154V46.4851H31.2155C30.8205 46.4851 30.3091 46.4142 29.9007 46.129C29.5041 45.8519 29.1759 45.3524 29.1759 44.4287V39.1718C29.1759 38.2562 29.5002 37.7564 29.8953 37.4773C30.3017 37.1902 30.8131 37.1154 31.2155 37.1154H32.1173ZM42.6356 53.2871V53.9566H39.4943V52.5001H42.6356V53.2871Z" fill="#0A2235" stroke="#0A2235" stroke-width="0.361111"/>
    </g>
    <defs>
        <clipPath id="clip0">
            <rect width="81" height="65" fill="white"/>
        </clipPath>
    </defs>
</svg>
